<svg width="94" height="39" viewBox="0 0 94 39" fill="none" xmlns="http://www.w3.org/2000/svg">
<path d="M15.3926 17.5475L1.89258 18L15.3926 37L15.8926 37.5M15.3926 17.5475C15.3926 17.5475 46.1711 16.5158 65.8926 15.8547M15.3926 17.5475V8.5M65.8926 15.8547C75.8509 15.5209 91.3926 15 91.3926 15L74.3926 35.5L73.1256 36.6607M65.8926 15.8547C63.8926 12.5001 60.8926 9.5001 60.8926 9.5001M15.3926 8.5V1H47.3926C54.8926 1.5 60.8926 9.5001 60.8926 9.5001M15.3926 8.5L60.8926 9.5001M2.89258 37.5H15.8926M29.8926 37.5H15.8926M15.8926 37.5C15.8926 37.5 21.3926 31.5 27.3926 31.5C33.3926 31.5 35.8926 37.5 42.8926 37.5M85.3926 37.5H74.3926M74.3926 37.5H42.8926M42.8926 37.5C49.8926 37.5 53.8926 31.5 59.8926 31.5C64.4817 31.5 70.5332 35.01 73.1256 36.6607C73.9226 37.1682 74.3926 37.5 74.3926 37.5" stroke="black" stroke-width="2" stroke-linecap="round"/>
</svg>
