<svg width="75" height="44" viewBox="0 0 75 44" fill="none" xmlns="http://www.w3.org/2000/svg">
<path d="M11.4814 41.3599C11.4814 41.3599 3.98145 30.8599 0.981201 27.3599L10.971 26.0581M63.4814 35.0178C63.4814 35.0178 69.4815 27.3599 73.971 17.8595L51.971 20.7225M51.971 20.7225C51.971 20.7225 51.471 16.3598 49.059 15.0595C48.5388 14.779 46.971 15.0595 46.971 15.0595M51.971 20.7225L10.971 26.0581M10.971 19.8595V26.0581M10.971 19.8595C10.971 19.8595 10.971 12.3601 10.971 11.3598C10.971 10.7725 12.471 10.7504 12.471 10.7504M10.971 19.8595L46.971 15.0595M46.971 15.0595C46.971 15.0595 42.5 9.66475 38.471 8.85948C35.971 8.35981 12.471 10.7504 12.471 10.7504M12.471 10.7504C12.471 10.7504 6.63768 6.85981 6.97103 3.85948C7.47103 -0.640671 11.7411 0.129672 13.471 1.85981C15.471 3.86006 17.971 6.35948 17.971 6.35948M0.981201 42.8599C6.48145 44.3599 11.9812 39.8599 17.9814 40.3599C23.9817 40.8599 24.4814 38.3599 27.9814 38.3599C31.5819 38.3599 33.3952 40.6795 36.9814 40.3599C40.8125 40.0184 42.1377 36.2211 45.9814 36.3599C48.4497 36.449 49.5116 38.3599 51.9814 38.3599C55.4745 38.3598 56.5122 34.7662 59.9814 34.3595C64.031 33.8848 65.923 37.7512 69.9814 37.3599C71.5803 37.2057 73.971 36.3599 73.971 36.3599" stroke="currentColor"/>
</svg>
