<svg width="63" height="49" viewBox="0 0 63 49" fill="none" xmlns="http://www.w3.org/2000/svg">
<path d="M38.2891 0C40.6295 5.46516e-05 42.8151 1.16984 44.1133 3.11719L46.5508 6.77344C47.4781 8.16439 49.0392 8.99995 50.7109 9H56C59.866 9 63 12.134 63 16V41.5C63 45.366 59.866 48.5 56 48.5H7C3.13401 48.5 0 45.366 0 41.5V16C5.03956e-07 12.22 2.99617 9.14103 6.74316 9.00586L6.91992 8.38867C7.40845 6.67881 8.97172 5.5 10.75 5.5C12.5283 5.5 14.0915 6.67881 14.5801 8.38867L14.7383 8.94238C16.2413 8.7157 17.5736 7.80768 18.3252 6.45508L19.9111 3.60059C21.1457 1.37837 23.4882 5.30814e-05 26.0303 0H38.2891ZM26.0303 2C24.2145 2.00005 22.541 2.98498 21.6592 4.57227L20.0742 7.42578C18.8487 9.63162 16.5234 11 14 11H7C4.23858 11 2 13.2386 2 16V41.5C2 44.2614 4.23858 46.5 7 46.5H56C58.7614 46.5 61 44.2614 61 41.5V16C61 13.2386 58.7614 11 56 11H50.7109C48.3705 10.9999 46.1849 9.83016 44.8867 7.88281L42.4492 4.22656C41.5219 2.83561 39.9608 2.00005 38.2891 2H26.0303ZM32 12C40.5604 12 47.5 18.9396 47.5 27.5C47.5 36.0604 40.5604 43 32 43C23.4396 43 16.5 36.0604 16.5 27.5C16.5 18.9396 23.4396 12 32 12ZM32 14C24.5442 14 18.5 20.0442 18.5 27.5C18.5 34.9558 24.5442 41 32 41C39.4558 41 45.5 34.9558 45.5 27.5C45.5 20.0442 39.4558 14 32 14ZM32 16.9746C37.8128 16.9746 42.5254 21.6872 42.5254 27.5C42.5254 33.3128 37.8128 38.0254 32 38.0254C26.1872 38.0254 21.4746 33.3128 21.4746 27.5C21.4746 21.6872 26.1872 16.9746 32 16.9746ZM32 18.9746C27.2918 18.9746 23.4746 22.7918 23.4746 27.5C23.4746 32.0612 27.0571 35.7854 31.5615 36.0137L32 36.0254C36.5612 36.0254 40.2854 32.4429 40.5137 27.9385L40.5254 27.5C40.5254 22.7918 36.7082 18.9746 32 18.9746ZM10.75 7.5C9.86468 7.5 9.08697 8.08722 8.84375 8.93848L8.82617 9H12.6738L12.6562 8.93848C12.413 8.08722 11.6353 7.5 10.75 7.5Z" fill="black"/>
</svg>
