<svg viewBox="0 0 151 11" fill="none" xmlns="http://www.w3.org/2000/svg">
<path d="M1.38455 6.87041C2.22395 6.79725 3.33062 6.82281 4.17317 6.87079C4.43722 6.88565 4.30934 6.98937 4.49183 7.00377C4.84873 7.03154 5.17679 6.97282 5.52986 7.00754C5.64689 7.01943 5.51039 7.17979 5.63291 7.18847C6.30419 7.23436 6.93375 7.17305 7.61179 7.18181C10.9515 7.22275 14.2281 7.14508 17.6024 7.06883C18.7151 7.04409 20.0723 7.10391 21.2177 7.00374C21.3514 6.99203 21.2656 6.88406 21.2906 6.8738C21.6833 6.7172 21.562 6.94703 21.8247 6.96551C22.8672 7.03839 24.0199 6.99512 25.0151 6.91015C25.4384 6.87368 25.002 6.68165 25.4354 6.78145C25.4655 6.78811 25.3637 6.90521 25.4807 6.91202C25.746 6.92715 26.2455 6.88469 26.4505 6.88434C26.8455 6.88412 26.9107 6.87999 27.2835 6.8644C27.7933 6.84418 28.4022 6.87037 28.9476 6.82073C29.064 6.80988 28.9037 6.70649 29.0889 6.67947C29.2742 6.6525 29.7675 6.64014 29.935 6.6584C30.1026 6.6767 30.0363 6.76546 30.0667 6.78376C30.3173 6.93778 30.8754 6.68255 30.9484 6.67408C32.2808 6.51852 33.4343 6.59425 34.6895 6.53469C35.6424 6.48972 36.6592 6.40219 37.5662 6.36562C38.6468 6.32244 39.5651 6.33251 40.614 6.27344C40.7247 6.26736 40.589 6.15944 40.7242 6.1519C42.1607 6.07196 43.5885 6.0187 45.0232 6.02421C45.1671 6.02482 44.9872 6.12968 45.1313 6.13592C46.0132 6.17294 47.4114 6.2861 47.9114 5.85353C48.5068 5.84089 49.2295 5.8226 49.7656 5.87732C50.1112 5.91241 49.7834 6.0291 50.2024 5.9653C50.2969 5.95105 50.1688 5.86962 50.3109 5.85496C50.9091 5.7935 51.566 5.78941 52.1571 5.71556C52.2773 5.70036 52.2403 5.62474 52.2738 5.60917C52.5553 5.48288 53.0436 5.64541 53.1486 5.6535C53.9482 5.71446 54.5262 5.64584 55.2663 5.6115C55.438 5.60355 55.2297 5.51207 55.3948 5.50085C56.251 5.4441 57.1392 5.4092 57.9807 5.41167C58.1679 5.41245 58.0007 5.50609 58.0903 5.51078C58.4857 5.53023 58.5644 5.36561 58.9434 5.38135C59.0233 5.38444 58.9823 5.45912 58.9973 5.46634C59.2308 5.57962 59.4188 5.39284 59.477 5.38608C60.2128 5.29591 60.6945 5.45537 61.4066 5.39283C61.4918 5.38521 61.2945 5.30445 61.5343 5.28862C63.1315 5.1827 64.8234 5.12172 66.4094 5.1112C66.6559 5.10944 66.4838 5.18517 66.4997 5.1926C66.7587 5.30793 66.913 5.12743 66.9929 5.11686C67.6232 5.03772 68.2219 5.15068 68.6411 4.92457C70.7945 4.87025 72.9337 4.69653 75.073 4.65159C75.5998 4.64051 76.1266 4.63708 76.6536 4.64517C76.6875 4.64549 76.6313 4.7325 76.699 4.73279C77.5132 4.73705 77.3504 4.61505 77.8792 4.4263C78.0123 4.37877 78.434 4.54994 78.4712 4.56227C78.6066 4.6075 78.4756 4.74034 78.5205 4.74811C78.8924 4.80845 78.8107 4.39605 79.3066 4.36872C79.3221 4.36858 79.261 4.44884 79.303 4.45422C79.4336 4.4712 79.5602 4.43373 79.6882 4.45335C79.981 4.49883 80.0948 4.69725 80.531 4.55507C80.5862 4.53661 80.4882 4.30293 80.9315 4.28966C81.1083 4.28465 81.8893 4.23709 82.1091 4.24051C82.3287 4.24397 82.1826 4.33032 82.1984 4.33281C82.7931 4.40387 82.5718 4.45893 82.8752 4.59695C83.1785 4.73501 83.0774 4.37346 83.1956 4.32596C83.314 4.27851 83.7506 4.34099 83.8584 4.36551C83.9661 4.38993 83.8364 4.44745 83.9317 4.4595C84.5633 4.53833 84.1967 4.26097 84.3997 4.19066C84.8784 4.02313 85.2715 4.27889 85.7179 4.28304C85.8387 4.28397 85.7372 4.22538 85.844 4.21352C86.2674 4.16706 86.5274 4.24186 87.0063 4.13369C87.0846 4.11637 87.466 3.92103 87.7254 4.03387C87.7622 4.05028 87.6642 4.12791 87.8461 4.13413C88.1177 4.14352 88.6056 4.13319 88.8949 4.09275C89.1085 4.06276 88.8563 3.9552 89.1283 3.97764C89.2492 3.98779 89.0305 4.07122 89.2573 4.08462C89.4829 4.09817 90.0563 4.06404 90.2743 4.04962C90.492 4.03522 90.3679 3.94735 90.3851 3.94007C90.4897 3.8978 90.9053 3.82787 90.9422 3.82576C92.8045 3.70315 94.5315 3.7755 96.3425 3.61471C96.4846 3.60199 96.3839 3.49461 96.4055 3.49151C96.8903 3.41481 96.5219 3.73848 96.8677 3.8215C96.8063 3.59296 97.0095 3.62357 97.3514 3.57837C97.5162 3.55633 97.4214 3.47065 97.436 3.46051C97.674 3.30737 97.8541 3.47578 97.9001 3.51039C98.0697 3.63683 98.238 3.46591 98.3534 3.55085C98.4686 3.63577 98.2214 3.78387 98.5506 3.76517C98.6384 3.67383 98.3822 3.46282 98.6302 3.41153C99.5658 3.21451 101.335 3.28685 102.095 3.2649C102.853 3.24029 103.096 3.20797 103.539 3.21716C104.339 3.23478 104.037 3.06126 104.527 2.94083C105.018 2.81914 104.802 3.31626 104.879 3.41546C104.954 3.51548 105.025 3.40484 105.115 3.45755C105.205 3.51059 105.021 3.59037 105.226 3.60234C105.431 3.61509 105.98 3.40052 106.047 3.28409C106.187 3.03868 105.923 2.80525 106.468 2.85821C106.499 2.86153 106.405 2.99979 106.525 3.00596C107.475 3.05168 108.457 3.00168 109.407 3.04578C109.537 3.05225 109.429 3.21752 109.506 3.22334C110.298 3.28623 110.003 3.03122 110.418 2.69972C110.342 3.11151 110.594 3.34752 111.192 3.32407C111.551 3.30946 111.479 3.13017 111.705 2.98845C111.773 2.94543 112.033 3.0589 112.075 2.96934C112.212 2.67522 111.956 2.36994 112.578 2.45681C112.605 2.46122 112.527 2.62498 112.621 2.62876C113.228 2.65526 113.284 2.34403 113.934 2.25963C114.443 2.19275 115.362 2.32565 115.945 2.32198C115.961 2.85114 116.505 2.70412 116.708 2.31624C117.086 2.30735 117.493 2.25927 117.861 2.28898C117.987 2.29913 117.913 2.46603 117.93 2.48247C118.187 2.74344 118.332 2.35792 118.413 2.33724C119.288 2.13413 120.024 2.38978 120.852 2.03892C120.881 2.0266 120.907 1.60249 121.149 1.89408C121.165 1.91473 120.896 2.12416 121.293 2.11389C121.691 2.1018 122.451 2.29172 122.991 2.05405C123.122 1.99763 123.44 1.61022 123.725 1.87724C123.763 1.91378 123.731 2.04573 123.786 2.11469C123.967 2.33558 124.035 1.86998 124.253 2.25031C124.471 2.6303 124.899 2.91587 125.44 2.61385C125.457 2.60524 125.569 2.2207 125.744 2.21662C126.024 2.21109 126.424 2.27035 126.715 2.25285C126.854 2.24422 126.752 2.00624 126.776 2.00052C127.707 1.80774 128.385 1.98589 129.395 2.03333C129.58 2.04403 130.09 1.6536 130.462 1.91871C130.87 2.21306 130.536 3.54199 131.421 3.20735C131.778 3.08071 132.147 1.32802 132.847 2.19603C134.1 1.90404 135.296 2.34109 136.546 1.9377C136.603 1.92003 136.755 1.3727 136.889 1.37114C137.089 1.37076 137.211 1.61872 137.354 1.62813C137.954 1.67437 138.487 1.42223 139.063 1.42376C139.282 1.42426 139.22 1.70422 139.481 1.70694C139.742 1.71026 139.896 1.33171 140.258 1.49133C140.531 1.61263 140.837 2.36878 141.195 2.45017C141.169 1.68466 141.412 1.68971 141.832 1.46261C141.913 1.41837 141.81 1.15243 141.847 1.11739C142 0.967741 142.159 1.18445 142.302 1.02207C142.337 0.982942 142.325 0.714091 142.353 0.66661C142.588 0.250679 143.041 0.829238 143.119 0.93387C143.418 1.32474 143.529 0.96026 143.751 1.10927C143.972 1.26014 143.664 1.48005 143.918 1.56656C144.444 1.74725 145.103 1.67515 145.627 1.66503C145.836 1.6595 145.674 1.27908 145.703 1.26934C146.129 1.14632 146.588 1.54594 146.786 0.743619C147.192 2.77204 147.035 0.531094 147.673 0.903538C147.724 0.933736 147.837 1.91736 147.658 2.06741C147.479 2.21656 147.18 1.92168 146.932 2.15195C146.874 2.20759 146.569 3.11547 146.524 3.16845C146.17 3.59289 146.043 2.17603 146.019 2.09979C145.75 1.27132 145.37 2.2407 145.26 2.3057C144.758 2.61678 144.308 2.43423 143.886 2.65194C143.61 2.79232 143.629 3.6695 143.405 3.64246C142.66 3.54839 142.34 2.37424 141.696 3.40508C141.558 3.62376 141.755 4.53611 141.181 3.81763C141.145 3.7707 140.714 3.12653 140.505 3.53672C140.479 3.58818 140.494 3.84848 140.457 3.87025C140.209 4.01055 140.028 3.80441 139.755 3.90228C139.483 3.99988 139.156 4.14096 138.834 4.05422C138.64 4.00173 138.37 3.53925 138.273 3.4281C137.998 3.10771 137.748 3.63926 137.568 3.25294C137.387 2.86834 137.671 2.26564 137.235 2.03305C137.252 2.66218 137.25 3.30754 137.258 3.93821C136.329 3.91412 135.406 3.72225 134.476 3.75573C134.361 3.76018 134.496 4.07516 134.373 4.08725C133.853 4.13519 133.386 3.91562 132.849 4.00409C132.433 4.07372 131.99 4.38868 131.556 4.46247C131.256 3.83576 130.617 4.05292 130.141 3.99782C129.975 3.97947 129.978 3.81861 129.857 3.76753C129.404 3.58002 129.639 4.10502 129.522 4.18813C129.018 4.53755 128.911 3.36002 128.298 3.40538C128.266 3.40867 127.899 4.0266 127.846 4.06319C127.511 4.31127 127.778 3.85207 127.557 3.80974C127.154 3.73233 126.87 3.59706 126.412 3.77638C126.278 3.83045 125.97 4.19429 125.691 3.91814C125.654 3.88216 125.663 3.69156 125.635 3.68089C125.118 3.5058 125.136 4.09861 124.856 4.29712C124.576 4.49445 124.107 4.09525 124.01 3.98384C123.756 3.69243 124.186 3.8549 124.198 3.8258C124.331 3.4763 124.008 3.54289 123.757 3.51982C123.691 2.96154 123.345 3.00889 123.497 3.49838C123.514 3.55204 123.705 3.49555 123.757 3.51982C123.567 4.07432 123.186 4.13834 122.737 3.64773C122.526 3.41868 122.699 3.14226 122.103 3.26072C121.832 3.3138 121.957 3.67785 121.721 3.78221C121.181 4.01704 120.448 3.69527 119.883 3.76184C119.678 3.78482 119.888 3.97076 119.748 3.99241C119.377 4.04924 119.04 3.91479 118.668 3.99296C118.635 4.00012 118.728 4.192 118.611 4.1959C117.727 4.22813 116.949 4.11938 116.025 4.13315C115.578 4.14004 114.785 4.25019 114.321 4.23827C113.517 4.21724 112.518 3.99944 111.837 4.07519C111.392 4.12253 111.498 4.27967 111.312 4.39136C110.954 4.605 110.28 4.2454 110.19 4.19316C110.187 4.1915 110.569 4.14547 110.36 4.0711C110.232 3.90903 110.194 4.19252 110.19 4.19316C110.13 4.1577 109.36 4.14305 109.209 4.17584C109.127 4.19364 109.181 4.33459 109.138 4.34102C108.118 4.49002 107.091 4.53915 106.046 4.50069C106.028 4.49847 106.048 4.35141 106.004 4.34813C105.398 4.29957 105.022 4.48698 104.53 4.59933C104.038 4.71216 103.642 4.68353 103.335 4.45733C102.962 4.49661 102.418 4.40916 102.106 4.3585C101.793 4.30793 101.763 4.56478 101.736 4.57042C100.895 4.75319 100.396 4.62023 99.5136 4.62569C99.094 4.62738 98.2646 4.68694 97.8122 4.72563C97.4547 4.75649 97.2359 4.7094 96.9073 4.75372C96.8629 4.75962 96.9133 4.85929 96.8999 4.86359C96.5374 4.99431 96.7018 4.74345 96.6233 4.70196C96.339 4.5514 96.1642 4.47504 95.6961 4.56612C95.5881 4.58761 95.2889 4.94226 95.0914 4.96721C94.8346 4.99991 94.9256 4.87521 94.6569 4.91304C94.6339 4.91615 94.6426 4.99078 94.4756 4.99236C93.7006 5.00068 92.8542 4.98552 92.0501 5.01969C91.9402 5.02401 92.087 5.13172 91.9284 5.13954C91.184 5.17608 90.3671 5.19766 89.6386 5.17269C89.4593 5.16624 89.5674 5.08734 89.5274 5.06645C89.2824 4.94099 88.955 5.14867 88.8995 5.154C87.5755 5.29368 86.5497 5.16254 85.2 5.29803C85.1265 5.3061 84.5694 5.5232 84.3076 5.36708C84.2896 5.35656 84.0304 5.19768 83.815 5.32299C83.8016 5.33078 83.9623 5.41133 83.6895 5.41384C83.4167 5.41655 82.9815 5.4924 82.6023 5.41424C82.4823 5.38947 82.1935 5.23644 81.8471 5.38438C81.8245 5.39501 81.2944 5.71563 81.089 5.52001C81.0557 5.48781 81.0774 5.27043 80.6614 5.40071C80.582 5.42585 80.7308 5.4671 80.52 5.50685C80.1972 5.56788 79.7632 5.5307 79.3683 5.64465C79.2995 5.66484 79.0102 5.82317 78.7663 5.72484C78.7281 5.70946 78.7953 5.63507 78.6691 5.63317C78.0692 5.62391 77.4456 5.70202 76.836 5.68381C76.6202 5.67754 76.7241 5.55805 76.4984 5.53898C76.2726 5.51991 75.8196 5.51391 75.5877 5.57809C75.3559 5.64229 75.6217 5.81017 75.271 5.84299C75.226 5.84721 75.181 5.85127 75.136 5.85521C73.657 5.98452 72.1827 5.96201 70.7016 6.02634C70.4753 6.03617 70.6662 6.09116 70.3329 6.11037C69.104 6.18116 66.9852 6.35934 65.9114 6.27859C65.051 6.2135 66.122 6.06916 65.4665 6.05919C65.1503 6.05446 64.8206 6.28771 64.7449 6.29875C64.0055 6.40868 63.4841 6.34207 62.8168 6.40869C62.679 6.42252 62.8191 6.50264 62.7018 6.51348C62.3011 6.55135 61.8771 6.53593 61.4938 6.56483C61.3219 6.57801 61.3572 6.64364 61.1985 6.64746C60.819 6.65739 60.4824 6.64818 60.1097 6.60561C60.0757 6.6017 60.2983 6.50452 60.0178 6.5172C59.5638 6.53805 58.9973 6.50661 58.4787 6.6015C58.3248 6.62991 58.327 6.78695 57.9884 6.69783C57.9173 6.67925 57.9966 6.4856 57.6173 6.67064C57.5535 6.70117 56.9136 6.95976 56.5864 6.83595C56.5001 6.80336 56.2766 6.66008 56.0917 6.69514C56.0666 6.70051 56.1723 6.77989 56.0184 6.79712C55.4759 6.85643 54.9054 6.88044 54.348 6.94013C54.1992 6.95629 54.4261 7.0324 54.2041 7.05374C53.5938 7.11263 52.8291 7.1356 52.2296 7.14298C52.0086 7.14554 52.157 7.06133 52.1405 7.05413C51.8756 6.93632 51.7325 7.12494 51.6474 7.14066C51.1182 7.2355 50.7083 7.17498 50.2186 7.22696C50.0835 7.24112 50.1841 7.3222 50.1575 7.33157C49.8818 7.42437 50.082 7.25556 49.904 7.24902C49.4056 7.23009 48.8532 7.27012 48.3523 7.31177C48.1683 7.32721 48.3807 7.41687 48.2156 7.42965C47.2382 7.50737 46.2206 7.56126 45.2629 7.5626C45.0825 7.56264 45.1914 7.47468 45.1529 7.4585C44.8879 7.34464 44.5187 7.54453 44.4325 7.56707C44.0406 7.66898 43.883 7.60639 43.534 7.64161C41.8294 7.81585 39.7179 7.90234 38.104 7.97348C36.0009 8.06785 34.3661 8.08542 32.3638 8.2366C32.2365 8.24616 32.3713 8.36095 32.2617 8.37089C30.8463 8.49448 29.4487 8.53796 28.0308 8.67059C27.9145 8.68133 28.0888 8.79265 27.9023 8.81424C27.5198 8.85944 27.0336 8.88677 26.6437 8.87375C26.4536 8.86756 26.7017 8.74301 26.5104 8.73876C26.0649 8.72846 25.5892 8.75107 25.1349 8.80222C24.9416 8.82435 25.2408 8.93445 24.989 8.95336C23.274 9.08441 21.5906 9.2306 19.8474 9.17168C19.7279 9.16772 19.6088 8.89159 19.3589 8.96257C19.344 9.0427 19.3499 9.13543 19.346 9.22033C16.8509 9.44097 14.3738 9.51448 11.8685 9.67385C11.7628 9.68073 11.954 9.83354 11.7496 9.848C10.5664 9.93129 9.42025 10.0661 8.20109 9.98164C8.08013 9.97344 8.12566 9.66226 7.77419 9.73303C7.71222 9.74579 7.18137 9.82392 7.04712 9.90134C7.02894 9.9129 7.13377 10.051 6.96227 10.0678C5.96551 10.1626 4.91808 10.2071 3.91701 10.1868C3.75543 10.1831 3.9182 10.0095 3.80303 10.0053C2.98606 9.97546 2.10894 10.1627 1.3247 10.0658C0.79968 9.99935 0.976904 9.69662 0.685665 9.4276C0.644473 9.38957 0.322193 9.40243 0.296764 9.2359C0.231933 8.81699 0.36383 8.34887 0.276303 7.90353C0.261943 7.82936 0.00446737 7.88457 3.97055e-05 7.80115C3.87696e-05 7.80113 3.78338e-05 7.80112 3.68979e-05 7.8011C-0.00123522 7.77651 0.0194623 7.73987 0.0748245 7.68452C0.0918564 7.66815 0.400782 7.57937 0.473748 7.4979C0.524568 7.44157 0.418939 7.27502 0.524817 7.20183C0.630701 7.1289 0.758487 7.26693 0.935805 7.17969C1.113 7.09171 1.02315 6.90255 1.38455 6.87041ZM100.698 4.14033C100.405 4.03297 100.386 4.4689 100.69 4.35438C100.705 4.34833 100.713 4.14562 100.698 4.14033ZM135.369 2.91776C134.969 2.45973 134.749 3.15221 135.032 3.50761C135.316 3.86728 135.49 3.05891 135.369 2.91776ZM139.236 2.44483C138.777 2.05656 138.794 3.6999 139.246 3.36264C139.272 3.34366 139.263 2.46771 139.236 2.44483ZM1.96267 9.27058C1.95831 9.26309 1.72648 9.26912 1.72135 9.27714C1.60786 9.47031 2.07136 9.4569 1.96267 9.27058ZM143.068 1.87322C142.918 1.63445 142.54 1.93295 142.725 2.22827C142.875 2.46784 143.254 2.17272 143.068 1.87322ZM85.7382 4.43993C85.7334 4.43535 85.5672 4.43965 85.572 4.46659C85.5878 4.55336 85.8176 4.51704 85.7382 4.43993ZM149.616 1.58062C148.644 1.53094 147.97 -0.104085 149.032 0.00516987C149.225 0.0272052 148.65 0.577971 148.901 0.715249C149.36 0.973184 149.597 -0.133138 150.081 0.420797C150.169 0.525969 149.672 1.58979 149.615 1.58311C149.615 1.58228 149.616 1.58145 149.616 1.58062ZM100.506 3.62338C100.5 3.61791 100.27 3.62455 100.264 3.63052C100.147 3.77416 100.611 3.76254 100.506 3.62338ZM76.0431 4.75937C76.03 4.75162 75.4963 4.77177 75.4794 4.78043C75.2093 4.95009 76.2882 4.90999 76.0431 4.75937ZM115.955 2.33552C116.195 2.11063 116.493 2.06148 116.707 2.31604C116.457 2.31793 116.206 2.33211 115.955 2.33552Z" fill="#29e7ff "/>
</svg>
