<svg width="74" height="50" viewBox="0 0 74 50" fill="none" xmlns="http://www.w3.org/2000/svg">
<path d="M64.0002 42.0747C67.0104 42.0747 69.2184 43.1734 70.6692 44.2788C71.3915 44.8292 71.9267 45.3815 72.2844 45.8003C72.4634 46.0099 72.5993 46.1878 72.6926 46.3169C72.7392 46.3813 72.7752 46.4346 72.801 46.4731C72.8138 46.4922 72.8245 46.508 72.8323 46.52C72.8361 46.5259 72.8395 46.5316 72.842 46.5356C72.8433 46.5374 72.845 46.5391 72.8459 46.5405L72.8469 46.5425L72.8479 46.5435C72.8449 46.5459 72.7992 46.5752 72.1594 46.9751L72.8479 46.5444C73.1402 47.0126 72.9985 47.6296 72.5305 47.9224C72.0627 48.2146 71.4456 48.0731 71.1526 47.606C71.1505 47.6027 71.146 47.5955 71.1399 47.5864C71.1265 47.5664 71.1035 47.533 71.0715 47.4888C71.0068 47.3992 70.9038 47.2641 70.7629 47.0991C70.4801 46.768 70.0461 46.3191 69.4563 45.8696C68.2821 44.9751 66.4897 44.0747 64.0002 44.0747C61.6147 44.0747 59.9894 45.2403 58.0168 46.6401C56.0786 48.0156 53.8467 49.5747 50.5002 49.5747C47.1587 49.5747 44.922 48.016 42.8831 46.6567C40.8293 45.2876 38.9249 44.0747 36.0002 44.0747C33.0601 44.0747 31.0311 45.2972 28.6985 46.6841C26.3784 48.0635 23.7963 49.5744 20.0002 49.5747C18.1104 49.5748 16.6722 49.2017 15.4954 48.6089C14.3318 48.0227 13.4769 47.2461 12.7463 46.5474C11.2805 45.1451 10.3002 44.0748 8.00024 44.0747C5.52161 44.0747 4.01276 44.9661 3.12329 45.8032C2.6701 46.2298 2.36465 46.6551 2.17603 46.9673C2.0823 47.1225 2.01843 47.2488 1.97974 47.3306C1.96049 47.3713 1.94664 47.401 1.9397 47.4175L1.93579 47.4253C1.74174 47.9421 1.16562 48.205 0.648682 48.0112C0.13192 47.8172 -0.129849 47.24 0.0637207 46.7231L1.00024 47.0747C0.121577 46.7452 0.0677876 46.724 0.0646973 46.7222V46.7212L0.0656738 46.7183C0.066372 46.7164 0.0676897 46.7137 0.0686035 46.7114C0.0704357 46.7067 0.0728589 46.7004 0.0754395 46.6938C0.0808206 46.6803 0.0882263 46.6628 0.0969238 46.6421C0.114567 46.6002 0.138865 46.5433 0.171143 46.4751C0.235859 46.3383 0.332719 46.1513 0.465088 45.9321C0.729518 45.4945 1.14345 44.9192 1.7522 44.3462C2.98773 43.1833 4.97892 42.0747 8.00024 42.0747C11.2001 42.0748 12.7202 43.7543 14.1292 45.1021C14.836 45.7781 15.5127 46.3779 16.3958 46.8228C17.2657 47.2609 18.3906 47.5748 20.0002 47.5747C23.2038 47.5744 25.3723 46.3356 27.677 44.9653C29.9693 43.6024 32.4404 42.0747 36.0002 42.0747C39.5756 42.0747 41.9212 43.6118 43.9924 44.9927C46.0783 46.3833 47.842 47.5747 50.5002 47.5747C53.1534 47.5747 54.9221 46.3836 56.8586 45.0093C58.7609 43.6593 60.8859 42.0747 64.0002 42.0747ZM35.5002 27.5747C39.1288 27.5747 41.7554 29.547 44.0413 31.2769C46.4135 33.072 48.3939 34.5747 51.0002 34.5747C53.6534 34.5747 55.4221 33.3836 57.3586 32.0093C59.2609 30.6593 61.3859 29.0747 64.5002 29.0747C67.5801 29.0747 69.8147 30.4811 71.2522 31.8501C71.9698 32.5336 72.4985 33.2163 72.8489 33.729C73.0244 33.9859 73.1571 34.203 73.2473 34.3589C73.2923 34.4366 73.3274 34.5 73.3518 34.5454C73.3639 34.568 73.374 34.5874 73.3811 34.6011C73.3845 34.6076 73.3877 34.6134 73.3899 34.6177L73.3938 34.6255V34.6265C73.389 34.6293 73.33 34.6598 72.6272 35.0112L73.3948 34.6274C73.6415 35.1213 73.4414 35.7223 72.9475 35.9692C72.4543 36.2157 71.8544 36.0161 71.6067 35.5239C71.6064 35.5233 71.6056 35.5216 71.6047 35.52C71.6021 35.5149 71.5972 35.505 71.5901 35.4917C71.5753 35.4641 71.5506 35.4192 71.5168 35.3608C71.449 35.2435 71.3428 35.0692 71.1985 34.8579C70.9083 34.4333 70.4677 33.8645 69.8733 33.2983C68.6858 32.1675 66.9201 31.0747 64.5002 31.0747C62.1147 31.0747 60.4894 32.2403 58.5168 33.6401C56.5786 35.0156 54.3467 36.5747 51.0002 36.5747C47.6068 36.5747 45.0868 34.5772 42.8342 32.8726C40.4952 31.1025 38.3716 29.5747 35.5002 29.5747C32.6653 29.5747 30.9286 31.0604 28.8342 32.8374C26.7704 34.5884 24.3966 36.5744 20.5002 36.5747C18.6104 36.5748 17.1722 36.2017 15.9954 35.6089C14.8318 35.0227 13.9769 34.2461 13.2463 33.5474C11.7805 32.1451 10.8002 31.0748 8.50024 31.0747C6.02161 31.0747 4.51276 31.9661 3.62329 32.8032C3.1701 33.2298 2.86465 33.6551 2.67603 33.9673C2.5823 34.1225 2.51843 34.2488 2.47974 34.3306C2.46049 34.3713 2.44664 34.401 2.4397 34.4175L2.43579 34.4253C2.24174 34.9421 1.66562 35.205 1.14868 35.0112C0.63192 34.8172 0.370151 34.24 0.563721 33.7231L1.50024 34.0747C0.621577 33.7452 0.567788 33.724 0.564697 33.7222V33.7212L0.565674 33.7183C0.566372 33.7164 0.56769 33.7137 0.568604 33.7114C0.570436 33.7067 0.572859 33.7004 0.575439 33.6938C0.580821 33.6803 0.588226 33.6628 0.596924 33.6421C0.614567 33.6002 0.638865 33.5433 0.671143 33.4751C0.735859 33.3383 0.832719 33.1513 0.965088 32.9321C1.22952 32.4945 1.64345 31.9192 2.2522 31.3462C3.48773 30.1833 5.47892 29.0747 8.50024 29.0747C11.7001 29.0748 13.2202 30.7543 14.6292 32.1021C15.336 32.7781 16.0127 33.3779 16.8958 33.8228C17.7657 34.2609 18.8906 34.5748 20.5002 34.5747C23.6033 34.5744 25.4804 33.0606 27.5413 31.312C29.5718 29.5892 31.8354 27.5747 35.5002 27.5747ZM34.5002 15.0747C38.1288 15.0747 40.7554 17.047 43.0413 18.7769C45.4134 20.572 47.3941 22.0746 50.0002 22.0747C52.6535 22.0747 54.423 20.8836 56.3596 19.5093C58.2618 18.1594 60.3863 16.5749 63.5002 16.5747C66.5916 16.5747 69.0686 18.1179 70.7229 19.5737C71.557 20.3078 72.2058 21.0403 72.6467 21.5894C72.8676 21.8645 73.0387 22.0952 73.1555 22.2603C73.2139 22.3427 73.2588 22.4095 73.2903 22.4565C73.3059 22.4799 73.3185 22.4986 73.3274 22.5122C73.3317 22.5188 73.3355 22.5246 73.3381 22.5288C73.3394 22.5308 73.3402 22.5333 73.3411 22.5347L73.343 22.5366V22.5376C73.3361 22.5424 73.2623 22.5898 72.5002 23.0747L73.344 22.5376C73.6403 23.0035 73.5023 23.622 73.0364 23.9185C72.5996 24.1959 72.0288 24.0927 71.7151 23.6948L71.6565 23.6118C71.6557 23.6106 71.6545 23.608 71.6526 23.605C71.6479 23.5979 71.6393 23.5854 71.6282 23.5688C71.6058 23.5354 71.5703 23.4837 71.5227 23.4165C71.4267 23.2808 71.2801 23.0816 71.0872 22.8413C70.7 22.3592 70.1297 21.7164 69.4016 21.0757C67.9311 19.7816 65.9086 18.5747 63.5002 18.5747C61.1149 18.5749 59.4894 19.7403 57.5168 21.1401C55.5787 22.5156 53.3466 24.0747 50.0002 24.0747C46.6069 24.0746 44.0868 22.0772 41.8342 20.3726C39.4952 18.6025 37.3716 17.0747 34.5002 17.0747C31.6655 17.0748 29.9295 18.5605 27.8352 20.3374C25.7713 22.0885 23.3968 24.0744 19.5002 24.0747C15.7194 24.0749 13.268 22.7088 11.4192 21.3882C10.9671 21.0652 10.5453 20.7408 10.1663 20.4536C9.77969 20.1607 9.43727 19.9069 9.1106 19.6938C8.45132 19.2639 7.96185 19.0748 7.50024 19.0747C6.477 19.0748 5.61082 19.76 4.92505 20.6743C4.59602 21.1131 4.34507 21.5588 4.17603 21.897C4.09231 22.0645 4.02963 22.2028 3.9895 22.2964C3.96965 22.3427 3.95539 22.3787 3.94653 22.4009C3.94219 22.4117 3.93837 22.4202 3.93677 22.4243V22.4253C3.74275 22.9419 3.1665 23.2047 2.64966 23.0112C2.13289 22.8174 1.87054 22.241 2.06372 21.7241L2.84888 22.0181C2.0967 21.736 2.06494 21.7239 2.06372 21.7231L2.0647 21.7202C2.06509 21.7192 2.06607 21.7176 2.06665 21.7163C2.06795 21.7129 2.07046 21.7078 2.07251 21.7026C2.07668 21.6919 2.08199 21.6765 2.08911 21.6587C2.10361 21.6224 2.12493 21.5716 2.15161 21.5093C2.20514 21.3843 2.28351 21.2094 2.38696 21.0024C2.59276 20.5908 2.90489 20.036 3.32544 19.4751C4.13948 18.3896 5.52366 17.0748 7.50024 17.0747C8.53842 17.0748 9.4243 17.5106 10.2024 18.0181C10.5943 18.2737 10.9866 18.5669 11.3733 18.8599C11.7675 19.1586 12.1586 19.4593 12.5813 19.7612C14.2324 20.9406 16.2817 22.0749 19.5002 22.0747C22.6032 22.0745 24.4804 20.5605 26.5413 18.812C28.5718 17.0892 30.8356 15.0749 34.5002 15.0747ZM14.4446 0.398926C16.5672 -0.482696 19.1761 0.0817889 21.9592 2.24756C21.9746 2.25951 21.9999 2.27093 22.0315 2.27197C22.0624 2.27295 22.0838 2.26395 22.095 2.25635C23.4385 1.32212 24.9487 0.637018 26.4036 0.352051C27.8446 0.0698091 29.3519 0.160575 30.553 0.95166C31.7945 1.76944 32.4923 3.18957 32.5745 5.09131C32.6555 6.96684 32.1495 9.39218 30.928 12.4458C30.7228 12.9586 30.1409 13.2076 29.6282 13.0024C29.1156 12.7972 28.8665 12.2153 29.0715 11.7026C30.2416 8.77751 30.6402 6.65336 30.5764 5.17725C30.5137 3.72771 30.0176 2.99329 29.4534 2.62158C28.8487 2.22331 27.9385 2.08973 26.7883 2.31494C25.6518 2.53755 24.3957 3.09264 23.2375 3.89795C22.4761 4.42746 21.4502 4.38656 20.7307 3.82666C18.2545 1.89966 16.4111 1.74717 15.2112 2.24561C13.9759 2.75886 13.0214 4.12249 12.6868 6.06787C12.0215 9.93577 13.9739 15.3776 19.8586 17.6411C20.3741 17.8394 20.632 18.4177 20.4338 18.9331C20.2356 19.4486 19.6563 19.7056 19.1409 19.5073C12.2872 16.8711 9.90291 10.4512 10.7151 5.729C11.1192 3.37949 12.3574 1.26594 14.4446 0.398926Z" fill="black"/>
</svg>
